<?xml version="1.0" encoding="UTF-8" standalone="no"?>
<!DOCTYPE svg PUBLIC "-//W3C//DTD SVG 1.1//EN"
 "http://www.w3.org/Graphics/SVG/1.1/DTD/svg11.dtd">
<!-- Generated by graphviz version 2.43.0 (0)
 -->
<!-- Title: TraceabilitySchema Pages: 1 -->
<svg width="1015pt" height="652pt"
 viewBox="0.00 0.00 1014.61 652.00" xmlns="http://www.w3.org/2000/svg" xmlns:xlink="http://www.w3.org/1999/xlink">
<g id="graph0" class="graph" transform="scale(1 1) rotate(0) translate(4 648)">
<title>TraceabilitySchema</title>
<polygon fill="white" stroke="transparent" points="-4,4 -4,-648 1010.61,-648 1010.61,4 -4,4"/>
<text text-anchor="middle" x="503.31" y="-625.6" font-family="Helvetica,sans-Serif" font-size="18.00">Evidence&#45;centric certification traceability schema (pilot)</text>
<g id="clust1" class="cluster">
<title>cluster_norm</title>
<path fill="none" stroke="#bbbbbb" d="M20,-358C20,-358 441.81,-358 441.81,-358 447.81,-358 453.81,-364 453.81,-370 453.81,-370 453.81,-426 453.81,-426 453.81,-432 447.81,-438 441.81,-438 441.81,-438 20,-438 20,-438 14,-438 8,-432 8,-426 8,-426 8,-370 8,-370 8,-364 14,-358 20,-358"/>
<text text-anchor="middle" x="230.9" y="-419.6" font-family="Helvetica,sans-Serif" font-size="18.00">Normative layer</text>
</g>
<g id="clust2" class="cluster">
<title>cluster_impl</title>
<path fill="none" stroke="#bbbbbb" d="M709.11,-358C709.11,-358 976.11,-358 976.11,-358 982.11,-358 988.11,-364 988.11,-370 988.11,-370 988.11,-426 988.11,-426 988.11,-432 982.11,-438 976.11,-438 976.11,-438 709.11,-438 709.11,-438 703.11,-438 697.11,-432 697.11,-426 697.11,-426 697.11,-370 697.11,-370 697.11,-364 703.11,-358 709.11,-358"/>
<text text-anchor="middle" x="842.61" y="-419.6" font-family="Helvetica,sans-Serif" font-size="18.00">Implementation layer</text>
</g>
<g id="clust3" class="cluster">
<title>cluster_evid</title>
<path fill="none" stroke="#bbbbbb" d="M226,-446C226,-446 986.61,-446 986.61,-446 992.61,-446 998.61,-452 998.61,-458 998.61,-458 998.61,-596 998.61,-596 998.61,-602 992.61,-608 986.61,-608 986.61,-608 226,-608 226,-608 220,-608 214,-602 214,-596 214,-596 214,-458 214,-458 214,-452 220,-446 226,-446"/>
<text text-anchor="middle" x="606.31" y="-589.6" font-family="Helvetica,sans-Serif" font-size="18.00">Evidence layer</text>
</g>
<g id="clust4" class="cluster">
<title>cluster_assess</title>
<path fill="none" stroke="#bbbbbb" d="M331.12,-8C331.12,-8 958.61,-8 958.61,-8 964.61,-8 970.61,-14 970.61,-20 970.61,-20 970.61,-104 970.61,-104 970.61,-110 964.61,-116 958.61,-116 958.61,-116 331.12,-116 331.12,-116 325.12,-116 319.12,-110 319.12,-104 319.12,-104 319.12,-20 319.12,-20 319.12,-14 325.12,-8 331.12,-8"/>
<text text-anchor="middle" x="644.87" y="-97.6" font-family="Helvetica,sans-Serif" font-size="18.00">Assessment layer</text>
</g>
<g id="clust5" class="cluster">
<title>cluster_evol</title>
<path fill="none" stroke="#bbbbbb" d="M313.87,-124C313.87,-124 457.74,-124 457.74,-124 463.74,-124 469.74,-130 469.74,-136 469.74,-136 469.74,-299 469.74,-299 469.74,-305 463.74,-311 457.74,-311 457.74,-311 313.87,-311 313.87,-311 307.87,-311 301.87,-305 301.87,-299 301.87,-299 301.87,-136 301.87,-136 301.87,-130 307.87,-124 313.87,-124"/>
<text text-anchor="middle" x="385.81" y="-292.6" font-family="Helvetica,sans-Serif" font-size="18.00">Evolution layer</text>
</g>
<!-- R -->
<g id="node1" class="node">
<title>R</title>
<path fill="white" stroke="#444444" d="M91,-402C91,-402 28,-402 28,-402 22,-402 16,-396 16,-390 16,-390 16,-378 16,-378 16,-372 22,-366 28,-366 28,-366 91,-366 91,-366 97,-366 103,-372 103,-378 103,-378 103,-390 103,-390 103,-396 97,-402 91,-402"/>
<text text-anchor="middle" x="59.5" y="-387.2" font-family="Helvetica,sans-Serif" font-size="11.00">Requirement</text>
<text text-anchor="middle" x="59.5" y="-375.2" font-family="Helvetica,sans-Serif" font-size="11.00">(R_i)</text>
</g>
<!-- C -->
<g id="node2" class="node">
<title>C</title>
<path fill="white" stroke="#444444" d="M433.81,-402C433.81,-402 337.81,-402 337.81,-402 331.81,-402 325.81,-396 325.81,-390 325.81,-390 325.81,-378 325.81,-378 325.81,-372 331.81,-366 337.81,-366 337.81,-366 433.81,-366 433.81,-366 439.81,-366 445.81,-372 445.81,-378 445.81,-378 445.81,-390 445.81,-390 445.81,-396 439.81,-402 433.81,-402"/>
<text text-anchor="middle" x="385.81" y="-387.2" font-family="Helvetica,sans-Serif" font-size="11.00">Control / Objective</text>
<text text-anchor="middle" x="385.81" y="-375.2" font-family="Helvetica,sans-Serif" font-size="11.00">(C_j)</text>
</g>
<!-- R&#45;&gt;C -->
<g id="edge1" class="edge">
<title>R&#45;&gt;C</title>
<path fill="none" stroke="#444444" d="M103.23,-384C157.35,-384 251.3,-384 315.69,-384"/>
<polygon fill="#444444" stroke="#444444" points="325.75,-384 315.75,-388.5 320.75,-384 315.75,-384 315.75,-384 315.75,-384 320.75,-384 315.75,-379.5 325.75,-384 325.75,-384"/>
<text text-anchor="middle" x="162.5" y="-387" font-family="Helvetica,sans-Serif" font-size="10.00">refines / maps&#45;to</text>
</g>
<!-- A -->
<g id="node4" class="node">
<title>A</title>
<polygon fill="white" stroke="#444444" points="984.61,-498 694.61,-498 694.61,-454 990.61,-454 990.61,-492 984.61,-498"/>
<polyline fill="none" stroke="#444444" points="984.61,-498 984.61,-492 "/>
<polyline fill="none" stroke="#444444" points="990.61,-492 984.61,-492 "/>
<text text-anchor="middle" x="842.61" y="-485.2" font-family="Helvetica,sans-Serif" font-size="11.00">Evidence artefact</text>
<text text-anchor="middle" x="842.61" y="-473.2" font-family="Helvetica,sans-Serif" font-size="11.00">(A_k)</text>
<text text-anchor="middle" x="842.61" y="-461.2" font-family="Helvetica,sans-Serif" font-size="11.00">(e.g., signed image, SBOM, scan, config snapshot)</text>
</g>
<!-- R&#45;&gt;A -->
<g id="edge16" class="edge">
<title>R&#45;&gt;A</title>
<path fill="none" stroke="#444444" stroke-dasharray="1,5" d="M103.32,-370.43C133.82,-361.5 175.98,-350.64 214,-346 362.07,-327.95 401.73,-326.55 549.61,-346 607.55,-353.62 634.87,-339.12 676.61,-380 697.11,-400.08 673.77,-422.28 694.61,-442 696.84,-444.11 699.18,-446.1 701.6,-447.97"/>
<polygon fill="#444444" stroke="#444444" points="710.17,-453.9 699.38,-451.91 706.06,-451.06 701.94,-448.21 701.94,-448.21 701.94,-448.21 706.06,-451.06 704.51,-444.51 710.17,-453.9 710.17,-453.9"/>
<text text-anchor="middle" x="385.81" y="-349" font-family="Helvetica,sans-Serif" font-size="10.00">evidenced&#45;by</text>
</g>
<!-- T -->
<g id="node7" class="node">
<title>T</title>
<ellipse fill="white" stroke="#444444" cx="385.81" cy="-57" rx="58.88" ry="22.76"/>
<text text-anchor="middle" x="385.81" y="-60.2" font-family="Helvetica,sans-Serif" font-size="11.00">Test / Check</text>
<text text-anchor="middle" x="385.81" y="-48.2" font-family="Helvetica,sans-Serif" font-size="11.00">(T_m)</text>
</g>
<!-- R&#45;&gt;T -->
<g id="edge17" class="edge">
<title>R&#45;&gt;T</title>
<path fill="none" stroke="#444444" stroke-dasharray="1,5" d="M62.47,-365.74C68.47,-313.53 88.12,-165.17 121,-131 171.81,-78.18 257.03,-62.13 316.83,-57.73"/>
<polygon fill="#444444" stroke="#444444" points="326.94,-57.08 317.25,-62.21 321.95,-57.4 316.96,-57.72 316.96,-57.72 316.96,-57.72 321.95,-57.4 316.67,-53.23 326.94,-57.08 326.94,-57.08"/>
<text text-anchor="middle" x="162.5" y="-134" font-family="Helvetica,sans-Serif" font-size="10.00">verified&#45;by</text>
</g>
<!-- Comp -->
<g id="node3" class="node">
<title>Comp</title>
<polygon fill="white" stroke="#444444" points="980.11,-402 705.11,-402 705.11,-398 701.11,-398 701.11,-394 705.11,-394 705.11,-374 701.11,-374 701.11,-370 705.11,-370 705.11,-366 980.11,-366 980.11,-402"/>
<polyline fill="none" stroke="#444444" points="705.11,-398 709.11,-398 709.11,-394 705.11,-394 "/>
<polyline fill="none" stroke="#444444" points="705.11,-374 709.11,-374 709.11,-370 705.11,-370 "/>
<text text-anchor="middle" x="842.61" y="-387.2" font-family="Helvetica,sans-Serif" font-size="11.00">Component</text>
<text text-anchor="middle" x="842.61" y="-375.2" font-family="Helvetica,sans-Serif" font-size="11.00">(device FW, bootloader, OTA, broker, backend)</text>
</g>
<!-- C&#45;&gt;Comp -->
<g id="edge2" class="edge">
<title>C&#45;&gt;Comp</title>
<path fill="none" stroke="#444444" d="M446.27,-384C508.97,-384 610.16,-384 694.47,-384"/>
<polygon fill="#444444" stroke="#444444" points="704.67,-384 694.67,-388.5 699.67,-384 694.67,-384 694.67,-384 694.67,-384 699.67,-384 694.67,-379.5 704.67,-384 704.67,-384"/>
<text text-anchor="middle" x="622.11" y="-387" font-family="Helvetica,sans-Serif" font-size="10.00">implemented&#45;by</text>
</g>
<!-- C&#45;&gt;A -->
<g id="edge15" class="edge">
<title>C&#45;&gt;A</title>
<path fill="none" stroke="#444444" d="M446.27,-396.03C516.12,-410.16 633.75,-433.95 722.59,-451.92"/>
<polygon fill="#444444" stroke="#444444" points="732.45,-453.92 721.76,-456.35 727.55,-452.93 722.65,-451.94 722.65,-451.94 722.65,-451.94 727.55,-452.93 723.54,-447.52 732.45,-453.92 732.45,-453.92"/>
<text text-anchor="middle" x="622.11" y="-443" font-family="Helvetica,sans-Serif" font-size="10.00">requires evidence</text>
</g>
<!-- Comp&#45;&gt;A -->
<g id="edge3" class="edge">
<title>Comp&#45;&gt;A</title>
<path fill="none" stroke="#444444" d="M842.61,-402.18C842.61,-414.03 842.61,-429.83 842.61,-443.77"/>
<polygon fill="#444444" stroke="#444444" points="842.61,-453.97 838.11,-443.97 842.61,-448.97 842.61,-443.97 842.61,-443.97 842.61,-443.97 842.61,-448.97 847.11,-443.97 842.61,-453.97 842.61,-453.97"/>
<text text-anchor="middle" x="834.11" y="-425.5" font-family="Helvetica,sans-Serif" font-size="10.00">produces / described&#45;by</text>
</g>
<!-- A&#45;&gt;T -->
<g id="edge6" class="edge">
<title>A&#45;&gt;T</title>
<path fill="none" stroke="#444444" d="M707.48,-453.83C702.81,-450.37 698.49,-446.44 694.61,-442 665.3,-408.35 706.54,-275.1 676.61,-242 643.53,-205.41 602.25,-256.13 567.61,-221 535.6,-188.53 578.6,-155.2 549.61,-120 525.41,-90.62 485.77,-74.9 451.66,-66.51"/>
<polygon fill="#444444" stroke="#444444" points="441.74,-64.24 452.5,-62.09 446.62,-65.36 451.49,-66.47 451.49,-66.47 451.49,-66.47 446.62,-65.36 450.48,-70.86 441.74,-64.24 441.74,-64.24"/>
<text text-anchor="middle" x="622.11" y="-245" font-family="Helvetica,sans-Serif" font-size="10.00">input&#45;to</text>
</g>
<!-- B -->
<g id="node9" class="node">
<title>B</title>
<polygon fill="white" stroke="#444444" points="452.81,-176 449.81,-180 428.81,-180 425.81,-176 318.81,-176 318.81,-132 452.81,-132 452.81,-176"/>
<text text-anchor="middle" x="385.81" y="-163.2" font-family="Helvetica,sans-Serif" font-size="11.00">Evidence baseline</text>
<text text-anchor="middle" x="385.81" y="-151.2" font-family="Helvetica,sans-Serif" font-size="11.00">(B_t)</text>
<text text-anchor="middle" x="385.81" y="-139.2" font-family="Helvetica,sans-Serif" font-size="11.00">(versioned snapshot)</text>
</g>
<!-- A&#45;&gt;B -->
<g id="edge9" class="edge">
<title>A&#45;&gt;B</title>
<path fill="none" stroke="#444444" d="M707.9,-453.97C703.08,-450.48 698.61,-446.51 694.61,-442 645.36,-386.49 726.88,-330.59 676.61,-276 643.19,-239.71 606.17,-285.78 567.61,-255 552.06,-242.58 564.11,-227.64 549.61,-214 525.76,-191.55 492.8,-177.35 462.77,-168.44"/>
<polygon fill="#444444" stroke="#444444" points="453.14,-165.72 463.99,-164.1 457.95,-167.08 462.77,-168.43 462.77,-168.43 462.77,-168.43 457.95,-167.08 461.55,-172.77 453.14,-165.72 453.14,-165.72"/>
<text text-anchor="middle" x="622.11" y="-279" font-family="Helvetica,sans-Serif" font-size="10.00">belongs&#45;to</text>
</g>
<!-- TR -->
<g id="node5" class="node">
<title>TR</title>
<path fill="white" stroke="#444444" d="M537.42,-572C537.42,-572 301.15,-572 301.15,-572 295.15,-572 284.81,-567.85 280.47,-563.71 280.47,-563.71 230.87,-516.29 230.87,-516.29 226.53,-512.15 228.19,-508 234.19,-508 234.19,-508 470.47,-508 470.47,-508 476.47,-508 486.8,-512.15 491.14,-516.29 491.14,-516.29 540.75,-563.71 540.75,-563.71 545.08,-567.85 543.42,-572 537.42,-572"/>
<text text-anchor="middle" x="385.81" y="-543.2" font-family="Helvetica,sans-Serif" font-size="11.00">Tool run</text>
<text text-anchor="middle" x="385.81" y="-531.2" font-family="Helvetica,sans-Serif" font-size="11.00">(Tool ID, version, params)</text>
</g>
<!-- TR&#45;&gt;A -->
<g id="edge4" class="edge">
<title>TR&#45;&gt;A</title>
<path fill="none" stroke="#444444" d="M499.52,-524.14C555.34,-516.28 623.65,-506.67 684.51,-498.11"/>
<polygon fill="#444444" stroke="#444444" points="694.6,-496.69 685.32,-502.54 689.65,-497.38 684.7,-498.08 684.7,-498.08 684.7,-498.08 689.65,-497.38 684.07,-493.63 694.6,-496.69 694.6,-496.69"/>
<text text-anchor="middle" x="622.11" y="-516" font-family="Helvetica,sans-Serif" font-size="10.00">generated</text>
</g>
<!-- Obs -->
<g id="node6" class="node">
<title>Obs</title>
<polygon fill="white" stroke="#444444" points="451.31,-484 308.31,-484 308.31,-460 451.31,-460 463.31,-472 451.31,-484"/>
<text text-anchor="middle" x="385.81" y="-475.2" font-family="Helvetica,sans-Serif" font-size="11.00">Operational observation</text>
<text text-anchor="middle" x="385.81" y="-463.2" font-family="Helvetica,sans-Serif" font-size="11.00">(telemetry/log summary)</text>
</g>
<!-- Obs&#45;&gt;A -->
<g id="edge5" class="edge">
<title>Obs&#45;&gt;A</title>
<path fill="none" stroke="#444444" d="M463.44,-472.67C523.53,-473.2 609.17,-473.96 683.76,-474.61"/>
<polygon fill="#444444" stroke="#444444" points="694.21,-474.7 684.17,-479.12 689.21,-474.66 684.21,-474.62 684.21,-474.62 684.21,-474.62 689.21,-474.66 684.25,-470.12 694.21,-474.7 694.21,-474.7"/>
<text text-anchor="middle" x="622.11" y="-477" font-family="Helvetica,sans-Serif" font-size="10.00">materialised&#45;as</text>
</g>
<!-- Res -->
<g id="node8" class="node">
<title>Res</title>
<path fill="white" stroke="#444444" d="M831.02,-76.91C831.02,-76.91 734.21,-51.09 734.21,-51.09 728.41,-49.55 728.41,-46.45 734.21,-44.91 734.21,-44.91 831.02,-19.09 831.02,-19.09 836.82,-17.55 848.41,-17.55 854.21,-19.09 854.21,-19.09 951.02,-44.91 951.02,-44.91 956.82,-46.45 956.82,-49.55 951.02,-51.09 951.02,-51.09 854.21,-76.91 854.21,-76.91 848.41,-78.45 836.82,-78.45 831.02,-76.91"/>
<text text-anchor="middle" x="842.61" y="-51.2" font-family="Helvetica,sans-Serif" font-size="11.00">Result</text>
<text text-anchor="middle" x="842.61" y="-39.2" font-family="Helvetica,sans-Serif" font-size="11.00">(pass/fail, metrics)</text>
</g>
<!-- T&#45;&gt;Res -->
<g id="edge7" class="edge">
<title>T&#45;&gt;Res</title>
<path fill="none" stroke="#444444" d="M444.87,-55.85C514.05,-54.48 631.45,-52.16 720.65,-50.39"/>
<polygon fill="#444444" stroke="#444444" points="730.83,-50.19 720.92,-54.89 725.83,-50.29 720.83,-50.39 720.83,-50.39 720.83,-50.39 725.83,-50.29 720.75,-45.89 730.83,-50.19 730.83,-50.19"/>
<text text-anchor="middle" x="622.11" y="-57" font-family="Helvetica,sans-Serif" font-size="10.00">yields</text>
</g>
<!-- Res&#45;&gt;C -->
<g id="edge8" class="edge">
<title>Res&#45;&gt;C</title>
<path fill="none" stroke="#444444" d="M818.68,-73.95C789.09,-105.71 734.51,-158.74 676.61,-187 632.12,-208.71 601.16,-173.59 567.61,-210 524.51,-256.79 593.04,-305.51 549.61,-352 526.09,-377.18 489,-385.82 456.16,-387.87"/>
<polygon fill="#444444" stroke="#444444" points="446.13,-388.31 455.92,-383.38 451.12,-388.09 456.12,-387.87 456.12,-387.87 456.12,-387.87 451.12,-388.09 456.31,-392.37 446.13,-388.31 446.13,-388.31"/>
<text text-anchor="middle" x="622.11" y="-213" font-family="Helvetica,sans-Serif" font-size="10.00">supports</text>
</g>
<!-- Res&#45;&gt;B -->
<g id="edge10" class="edge">
<title>Res&#45;&gt;B</title>
<path fill="none" stroke="#444444" d="M781.09,-63.6C722.14,-78.63 629.93,-101.72 549.61,-120 521.4,-126.42 490.34,-133.02 462.97,-138.68"/>
<polygon fill="#444444" stroke="#444444" points="453.07,-140.72 461.95,-134.3 457.96,-139.71 462.86,-138.71 462.86,-138.71 462.86,-138.71 457.96,-139.71 463.77,-143.11 453.07,-140.72 453.07,-140.72"/>
<text text-anchor="middle" x="622.11" y="-118" font-family="Helvetica,sans-Serif" font-size="10.00">recorded&#45;in</text>
</g>
<!-- B&#45;&gt;B -->
<g id="edge14" class="edge">
<title>B&#45;&gt;B</title>
<path fill="none" stroke="#444444" d="M344.68,-176.21C341.31,-185.8 355.02,-194 385.81,-194 405.05,-194 417.62,-190.8 423.52,-186.05"/>
<polygon fill="#444444" stroke="#444444" points="426.93,-176.21 427.91,-187.14 425.29,-180.94 423.65,-185.66 423.65,-185.66 423.65,-185.66 425.29,-180.94 419.4,-184.18 426.93,-176.21 426.93,-176.21"/>
<text text-anchor="middle" x="385.81" y="-197" font-family="Helvetica,sans-Serif" font-size="10.00">supersedes</text>
</g>
<!-- Ch -->
<g id="node10" class="node">
<title>Ch</title>
<path fill="white" stroke="#444444" d="M451.81,-255.83C451.81,-255.83 433.61,-268.43 433.61,-268.43 428.67,-271.84 417.74,-275.26 411.74,-275.26 411.74,-275.26 359.87,-275.26 359.87,-275.26 353.87,-275.26 342.94,-271.84 338.01,-268.43 338.01,-268.43 319.81,-255.83 319.81,-255.83 314.87,-252.41 314.87,-245.59 319.81,-242.17 319.81,-242.17 338.01,-229.57 338.01,-229.57 342.94,-226.16 353.87,-222.74 359.87,-222.74 359.87,-222.74 411.74,-222.74 411.74,-222.74 417.74,-222.74 428.67,-226.16 433.61,-229.57 433.61,-229.57 451.81,-242.17 451.81,-242.17 456.74,-245.59 456.74,-252.41 451.81,-255.83"/>
<text text-anchor="middle" x="385.81" y="-252.2" font-family="Helvetica,sans-Serif" font-size="11.00">Change event</text>
<text text-anchor="middle" x="385.81" y="-240.2" font-family="Helvetica,sans-Serif" font-size="11.00">(u0394)</text>
</g>
<!-- Ch&#45;&gt;Comp -->
<g id="edge11" class="edge">
<title>Ch&#45;&gt;Comp</title>
<path fill="none" stroke="#444444" d="M459.3,-247.32C489.9,-243.32 524.24,-234.11 549.61,-214 564.26,-202.39 551.82,-185.99 567.61,-176 608.55,-150.09 632.99,-154.92 676.61,-176 755.08,-213.91 807.64,-309.26 829.76,-356.54"/>
<polygon fill="#444444" stroke="#444444" points="834.02,-365.86 825.77,-358.64 831.94,-361.32 829.86,-356.77 829.86,-356.77 829.86,-356.77 831.94,-361.32 833.96,-354.9 834.02,-365.86 834.02,-365.86"/>
<text text-anchor="middle" x="622.11" y="-179" font-family="Helvetica,sans-Serif" font-size="10.00">modifies</text>
</g>
<!-- Ch&#45;&gt;A -->
<g id="edge12" class="edge">
<title>Ch&#45;&gt;A</title>
<path fill="none" stroke="#444444" stroke-dasharray="5,2" d="M443.78,-261.75C479.36,-269.68 526.13,-280.04 567.61,-289 616.01,-299.46 642.86,-275.78 676.61,-312 716.38,-354.67 655.26,-398.95 694.61,-442 696.39,-443.95 698.26,-445.79 700.2,-447.54"/>
<polygon fill="#444444" stroke="#444444" points="708.06,-453.83 697.44,-451.1 704.16,-450.7 700.25,-447.58 700.25,-447.58 700.25,-447.58 704.16,-450.7 703.06,-444.07 708.06,-453.83 708.06,-453.83"/>
<text text-anchor="middle" x="622.11" y="-315" font-family="Helvetica,sans-Serif" font-size="10.00">invalidates / refreshes</text>
</g>
<!-- Ch&#45;&gt;T -->
<g id="edge13" class="edge">
<title>Ch&#45;&gt;T</title>
<path fill="none" stroke="#444444" stroke-dasharray="5,2" d="M315.72,-244.95C283.05,-240.57 244.71,-231.73 214,-214 184.96,-197.23 175.88,-188.86 164,-157.5 138.75,-90.86 242.93,-68.4 317.03,-60.84"/>
<polygon fill="#444444" stroke="#444444" points="327.27,-59.87 317.74,-65.29 322.29,-60.34 317.31,-60.81 317.31,-60.81 317.31,-60.81 322.29,-60.34 316.89,-56.33 327.27,-59.87 327.27,-59.87"/>
<text text-anchor="middle" x="162.5" y="-149.5" font-family="Helvetica,sans-Serif" font-size="10.00">triggers re&#45;test</text>
</g>
</g>
</svg>
